<?xml version="1.0" encoding="UTF-8" standalone="no"?>
<!DOCTYPE svg PUBLIC "-//W3C//DTD SVG 1.1//EN"
 "http://www.w3.org/Graphics/SVG/1.1/DTD/svg11.dtd">
<!-- Generated by graphviz version 2.38.0 (20140413.2041)
 -->
<!-- Title: G Pages: 1 -->
<svg width="144pt" height="420pt"
 viewBox="0.00 0.00 144.00 420.00" xmlns="http://www.w3.org/2000/svg" xmlns:xlink="http://www.w3.org/1999/xlink">
<g id="graph0" class="graph" transform="scale(1 1) rotate(0) translate(4 416)">
<title>G</title>
<polygon fill="white" stroke="none" points="-4,4 -4,-416 140,-416 140,4 -4,4"/>
<g id="clust1" class="cluster"><title>cluster_Global</title>
<path fill="none" stroke="gray" d="M20,-8C20,-8 116,-8 116,-8 122,-8 128,-14 128,-20 128,-20 128,-392 128,-392 128,-398 122,-404 116,-404 116,-404 20,-404 20,-404 14,-404 8,-398 8,-392 8,-392 8,-20 8,-20 8,-14 14,-8 20,-8"/>
<text text-anchor="middle" x="68" y="-391.2" font-family="Times New Roman,serif" font-size="11.00" fill="gray">Global</text>
</g>
<!-- \\shopControler -->
<g id="node1" class="node"><title>\\shopControler</title>
<polygon fill="none" stroke="black" points="120,-376 16,-376 16,-340 120,-340 120,-376"/>
<text text-anchor="middle" x="68" y="-355.2" font-family="Courier,monospace" font-size="11.00">shopControler</text>
</g>
<!-- \\shopManager -->
<g id="node2" class="node"><title>\\shopManager</title>
<polygon fill="none" stroke="black" points="113.5,-322 22.5,-322 22.5,-286 113.5,-286 113.5,-322"/>
<text text-anchor="middle" x="68" y="-301.2" font-family="Courier,monospace" font-size="11.00">shopManager</text>
</g>
<!-- \\libDefine -->
<g id="node3" class="node"><title>\\libDefine</title>
<polygon fill="none" stroke="black" points="106.5,-268 29.5,-268 29.5,-232 106.5,-232 106.5,-268"/>
<text text-anchor="middle" x="68" y="-247.2" font-family="Courier,monospace" font-size="11.00">libDefine</text>
</g>
<!-- \\libErrors -->
<g id="node4" class="node"><title>\\libErrors</title>
<polygon fill="none" stroke="black" points="106.5,-214 29.5,-214 29.5,-178 106.5,-178 106.5,-214"/>
<text text-anchor="middle" x="68" y="-193.2" font-family="Courier,monospace" font-size="11.00">libErrors</text>
</g>
<!-- \\libShopData -->
<g id="node5" class="node"><title>\\libShopData</title>
<polygon fill="none" stroke="black" points="113.5,-160 22.5,-160 22.5,-124 113.5,-124 113.5,-160"/>
<text text-anchor="middle" x="68" y="-139.2" font-family="Courier,monospace" font-size="11.00">libShopData</text>
</g>
<!-- \\libTheme -->
<g id="node6" class="node"><title>\\libTheme</title>
<polygon fill="none" stroke="black" points="103.5,-106 32.5,-106 32.5,-70 103.5,-70 103.5,-106"/>
<text text-anchor="middle" x="68" y="-85.2" font-family="Courier,monospace" font-size="11.00">libTheme</text>
</g>
<!-- \\sysLoader -->
<g id="node7" class="node"><title>\\sysLoader</title>
<polygon fill="none" stroke="black" points="106.5,-52 29.5,-52 29.5,-16 106.5,-16 106.5,-52"/>
<text text-anchor="middle" x="68" y="-31.2" font-family="Courier,monospace" font-size="11.00">sysLoader</text>
</g>
</g>
</svg>
